<svg width="17" height="17" viewBox="0 0 17 17" fill="none" xmlns="http://www.w3.org/2000/svg">
<g opacity="0.5">
<ellipse cx="8.5" cy="8.31171" rx="8.5" ry="8.31171" fill="white"/>
<path d="M8.42534 13.029C8.13734 13.029 7.88934 12.929 7.68134 12.729C7.48134 12.521 7.38134 12.273 7.38134 11.985C7.38134 11.697 7.48134 11.453 7.68134 11.253C7.88934 11.053 8.13734 10.953 8.42534 10.953C8.71334 10.953 8.95734 11.053 9.15734 11.253C9.35734 11.453 9.45734 11.697 9.45734 11.985C9.45734 12.273 9.35734 12.521 9.15734 12.729C8.95734 12.929 8.71334 13.029 8.42534 13.029ZM7.60934 6.83703V4.36503H9.22934V6.83703L9.06134 10.005H7.77734L7.60934 6.83703Z" fill="#274FED"/>
</g>
</svg>
